<svg id="Layer_1" data-name="Layer 1" xmlns="http://www.w3.org/2000/svg" width="500" height="500" viewBox="0 0 500 500">
  <path d="M217.3,72.6c-28.2,6-41.4,35.4-37.4,59.2,3.2,19.2,18.3,38.3,50.9,34.3,15.5-1.9,26.9-10,31.4-22.2s1.7-23.1-5.5-30.9-16-9.4-26.4-6.5c-7.1,2-11.9,7-13,13.7a18.8,18.8,0,0,0,7.6,18.2c3.3,2.2,10.3,5.2,20.3-.7l-2.4-4c-5.7,3.4-11.2,3.7-15.3.9a13.9,13.9,0,0,1-5.6-13.6c.4-2.9,2.3-8,9.6-10s16.4-.6,21.8,5.1,7.9,17.1,4.6,26.2c-2.3,6.2-8.9,16.9-27.7,19.2-29.4,3.7-42.9-13.3-45.8-30.5-3.6-21.7,8.3-48.4,33.9-53.9,20.6-4.4,42.4,3.1,55.5,19,16.2,19.7,17.2,49.3,2.7,83.4-2.3,5.3-4.7,10.4-7.2,15.4-10.9.7-21.8,5.5-31.3,14.2-14.7,13.2-13.3,30.3-5.5,41.9-2.1,2.6-4.1,5.1-6,7.7-21.5,27.3-40,51-41.8,84.8-2.1,41.1,16.8,65.8,29,77.4-15.6-7.6-40.2-24.2-45.5-68.4-3.2-26.9,12.7-48.5,28-69.5s31.7-43.3,22.3-68.3c-7.5-20-28.6-24.8-44.7-19.3-13.8,4.9-25.1,18.1-19.2,36.7,5.3,16.5,18.3,21,28.7,18.1s18.3-12.2,15.4-24.8c-2.5-10.6-8-12.8-11-13.2-4.7-.7-9.8,2.2-12.3,7a10.3,10.3,0,0,0,1.1,12.2,1.1,1.1,0,0,0,1.6.2,1.3,1.3,0,0,0,.2-1.7c-2.4-2.7-2.7-6.2-.9-9.6s6.3-6.4,10-5.9,7.4,4.7,9,11.5c2.7,11.3-4.9,19.7-13.7,22.1s-20.7-.5-25.9-16.6c-5.8-18.3,5.9-29.7,17.8-33.8,15-5.2,34.7-.7,41.8,17.9,9,23.8-6.1,44.4-22,66.2S162.6,325,166,352.8c6.2,52.7,40.6,67.6,53.6,73.3h.3l.3.9a1.7,1.7,0,0,0,2.1,1.2l.4-.2.9.6,1.1-2,1.6-1.7c-1.6-1.5-3.2-3-4.6-4.6-5.5-17-14.6-57.3,62.5-115.6l2.3-1.8a57.9,57.9,0,0,1,17.7,11.1,45.7,45.7,0,0,1,3.2,64.6,35.4,35.4,0,0,1-50,2.5,27.2,27.2,0,0,1-1.9-38.6,21,21,0,0,1,29.6-1.5l3.1-3.4a25.7,25.7,0,0,0-36.1,1.8,31.5,31.5,0,0,0-8.3,23,32.4,32.4,0,0,0,10.5,22.1,40,40,0,0,0,56.5-2.8,50.4,50.4,0,0,0-3.5-71.1,62.4,62.4,0,0,0-16.8-11c18.4-16,28.4-35.2,28.4-54.3a57.9,57.9,0,0,0-.6-8.3c-2.7-17.5-14.2-32.6-29.7-39a32.5,32.5,0,0,1,23.8-38.9,25.2,25.2,0,0,1,30.5,18.2,19.4,19.4,0,0,1-14,23.6,14.5,14.5,0,0,1-11.3-1.7,14.6,14.6,0,0,1-6.8-9.1,11.3,11.3,0,0,1,8.2-13.7,8.7,8.7,0,0,1,6.5.9,8.6,8.6,0,0,1,3.8,5.3,5.6,5.6,0,0,1-.7,4.7,5.9,5.9,0,0,1-3.8,2.9,1.7,1.7,0,0,0-1.3,2.1,1.8,1.8,0,0,0,2.1,1.3,10.1,10.1,0,0,0,6-4.5,10,10,0,0,0,1.1-7.4,11.6,11.6,0,0,0-5.5-7.3,11.4,11.4,0,0,0-9-1.3A14.6,14.6,0,0,0,307.5,191a18.3,18.3,0,0,0,22.2,13.3A22.8,22.8,0,0,0,347,182.2a21.5,21.5,0,0,0-.7-5.6A28.5,28.5,0,0,0,333.2,159a28.8,28.8,0,0,0-21.7-3.2,36.1,36.1,0,0,0-22.1,16.5,35.4,35.4,0,0,0-4.5,24.4,47.5,47.5,0,0,0-10.4-1.9c2.1-4.3,4.2-8.8,6.2-13.5,7.8-18.2,10.6-33.5,10.6-46.1,0-20.8-7.7-34.4-14-42C263.2,76,239.6,67.9,217.3,72.6Zm23,139c8.5-7.7,17.8-12.1,27.2-13.2-10.2,19.3-21.7,35.3-32.8,49.7C228.4,237.8,227.6,223.1,240.3,211.6Zm42.4,90.1-.6.4c-69.5,52.5-70.5,91.3-65.8,111.9a75.7,75.7,0,0,1,4.8-95.8A58.7,58.7,0,0,1,282.7,301.7Zm2.6-101.2c15.4,5.4,27,20,29.6,37.1,3.2,21.1-6.9,42.9-28,60.7a63.7,63.7,0,0,0-69.3,16.8,80.4,80.4,0,0,0-13.3,87.6c-8.7-13.1-16.4-32.4-15-59,1.7-32.3,19.8-55.4,40.8-82.2l5.3-6.8c8.7,9.8,24,15.3,38.1,4.9,11.2-8.2,11.6-18.9,7.2-25.9s-12.4-10.1-20.6-5.6-9.1,11.2-6.8,15.5a12.3,12.3,0,0,0,16.1,5.1,1.7,1.7,0,0,0-1.5-3.1,8.8,8.8,0,0,1-11.6-3.6c-2-3.8.1-7.8,5.5-10.8s12.8-.5,16,4.4,3.7,13.9-6.3,21.2c-12.6,9.3-26.3,4.1-34-4.9,11.9-15.4,24.4-32.6,35.3-53.7A38.9,38.9,0,0,1,285.3,200.5Z" fill="#333"/>
</svg>
