<svg id="Layer_1" data-name="Layer 1" xmlns="http://www.w3.org/2000/svg" width="500" height="500" viewBox="0 0 500 500">
  <g>
    <path d="M279.3,294c2.7,2.2,6.6-1.4,3.9-3.7S276.6,291.7,279.3,294Z" fill="#fffceb"/>
    <path d="M285.2,280.9l-.2.2a2.8,2.8,0,0,0-.1,3.8c1,1,2.9,1.3,3.9.2v-.3a2.7,2.7,0,0,0,.1-3.8C288.1,280.1,286.1,279.7,285.2,280.9Z" fill="#fffceb"/>
    <path d="M299,291.2c-2.7-2.2-6.6,1.4-3.9,3.6S301.7,293.5,299,291.2Z" fill="#fffceb"/>
    <path d="M302.6,286.3c1.2.9,2.7,1.2,3.8.1a2.7,2.7,0,0,0,.1-3.8l-.2-.2c-1.2-.9-2.7-1.2-3.8-.1a2.6,2.6,0,0,0-.1,3.8Z" fill="#fffceb"/>
    <path d="M315.3,295.3a2.3,2.3,0,0,0-3.2-.1,2.2,2.2,0,0,0,0,3.2h.2a2.3,2.3,0,0,0,3.2.2,2.2,2.2,0,0,0,0-3.2Z" fill="#fffceb"/>
    <path d="M272.8,294.5a3.8,3.8,0,0,0-2.7.9,2.6,2.6,0,0,0-.1,3.7,6.6,6.6,0,0,0,2,1.1,2.7,2.7,0,0,0,3.4-1.7,2.4,2.4,0,0,0,0-1.2C275.4,296,274.2,294.4,272.8,294.5Z" fill="#fffceb"/>
    <path d="M286.7,300.5a2.2,2.2,0,0,0,2-.9,1.2,1.2,0,0,0,.5-.5,2.6,2.6,0,0,0-.9-3.7c-2-1.4-4.1.2-4.3,2.3A2.8,2.8,0,0,0,286.7,300.5Z" fill="#fffceb"/>
    <path d="M294.1,276.8a2.7,2.7,0,0,0-.3,3.6,1.2,1.2,0,0,0,.6.9,1.7,1.7,0,0,0,1.8.3,2,2,0,0,0,1.8-.6,2.7,2.7,0,0,0,.1-3.8l-.2-.2C296.7,276,295.2,275.7,294.1,276.8Z" fill="#fffceb"/>
    <path d="M317.3,285.6c-2.3-2-5.8,1.2-3.4,3.2S319.7,287.6,317.3,285.6Z" fill="#fffceb"/>
    <path d="M306.9,292.9a2.6,2.6,0,0,0-3.7.8,2.6,2.6,0,0,0,.4,3.6,2.7,2.7,0,0,0,3.8.2,2.8,2.8,0,0,0,.8-2.4A3,3,0,0,0,306.9,292.9Z" fill="#fffceb"/>
    <path d="M327.5,295.1c-1.2-.9-2.7-1.2-3.8-.1a2.6,2.6,0,0,0-.1,3.7l.2.2c1.2,1,2.7,1.3,3.8.2a2.6,2.6,0,0,0,.1-3.8Z" fill="#fffceb"/>
    <path d="M309.1,283.2c2.4,2,5.8-1.2,3.4-3.2S306.7,281.3,309.1,283.2Z" fill="#fffceb"/>
    <path d="M290.8,272.4h-.2a2.5,2.5,0,1,0-3.7,3.4l.3.2a2.5,2.5,0,1,0,3.6-3.5Z" fill="#fffceb"/>
    <path d="M293.1,302c2.7,2.2,6.6-1.4,3.9-3.7S290.4,299.7,293.1,302Z" fill="#fffceb"/>
    <path d="M305.7,274.4c-2.5-2.1-6.2,1.3-3.6,3.4S308.3,276.5,305.7,274.4Z" fill="#fffceb"/>
    <path d="M325,290.5a2.4,2.4,0,0,0,.1-3.4c-.8-.9-2.6-1.2-3.4-.2l-.2.2a2.5,2.5,0,0,0,0,3.4,2.4,2.4,0,0,0,3.4.2Z" fill="#fffceb"/>
    <path d="M320.4,299.9a2.3,2.3,0,0,0-3.1-.2,2.2,2.2,0,0,0,0,3l.2.2a2.1,2.1,0,1,0,3-2.9Z" fill="#fffceb"/>
    <path d="M372.9,232c-1.9-2.8-6.5-.5-4.6,2.4S374.8,234.9,372.9,232Z" fill="#fffceb"/>
    <path d="M377.4,223.7l-.3.2a2.6,2.6,0,0,0-1.1,3.5c.6,1.2,2.4,2,3.5,1.2h.3a2.8,2.8,0,0,0,1.1-3.6C380.3,223.8,378.5,222.9,377.4,223.7Z" fill="#fffceb"/>
    <path d="M387.4,237.2c-1.9-2.8-6.6-.5-4.7,2.3S389.3,240.1,387.4,237.2Z" fill="#fffceb"/>
    <path d="M393.1,229.8a2.6,2.6,0,0,0-1.1,3.5l.2.3a2.7,2.7,0,0,0,3.5,1.2,2.6,2.6,0,0,0,1.1-3.5l-.2-.3A2.7,2.7,0,0,0,393.1,229.8Z" fill="#fffceb"/>
    <path d="M401.7,245.8v-.2a2.3,2.3,0,0,0-3-1,2.2,2.2,0,0,0-1,2.9l.2.2a2.3,2.3,0,0,0,3,1.1A2.3,2.3,0,0,0,401.7,245.8Z" fill="#fffceb"/>
    <path d="M385.8,226.7a2,2,0,0,0,1.7.8,2.5,2.5,0,0,0,1.9-.1,2.7,2.7,0,0,0,1.1-3.6l-.2-.2a2.7,2.7,0,0,0-3.5-1.2,3.6,3.6,0,0,0-1,4.3Z" fill="#fffceb"/>
    <path d="M359.2,233.1a2.5,2.5,0,0,0-1.1,3.5,8.1,8.1,0,0,0,1.6,1.6,2.6,2.6,0,0,0,3.6-.7,3.6,3.6,0,0,0,.4-1.1c.3-1.2-.3-3-1.7-3.3A4.5,4.5,0,0,0,359.2,233.1Z" fill="#fffceb"/>
    <path d="M373.3,242.5a2.4,2.4,0,0,0,2.2-.2l.6-.4a2.7,2.7,0,0,0,.2-3.7,2.7,2.7,0,0,0-4.7,1A2.7,2.7,0,0,0,373.3,242.5Z" fill="#fffceb"/>
    <path d="M406.1,237c-1.6-2.5-5.8-.4-4.1,2.1S407.8,239.6,406.1,237Z" fill="#fffceb"/>
    <path d="M390.6,240.7a2.9,2.9,0,0,0,2.9,4.8,2.6,2.6,0,0,0,1.4-2,2.8,2.8,0,0,0-.6-2.5A2.7,2.7,0,0,0,390.6,240.7Z" fill="#fffceb"/>
    <path d="M413,248.8a2.7,2.7,0,0,0-3.5-1.2,2.6,2.6,0,0,0-1.2,3.5l.2.2a2.7,2.7,0,0,0,3.5,1.2,2.5,2.5,0,0,0,1.1-3.5Z" fill="#fffceb"/>
    <path d="M403.2,230.5c-1.7-2.5-5.8-.5-4.1,2.1S404.9,233.1,403.2,230.5Z" fill="#fffceb"/>
    <path d="M378.9,245.6c1.9,2.9,6.6.6,4.6-2.3S377,242.8,378.9,245.6Z" fill="#fffceb"/>
    <path d="M398.4,223.3c-1.8-2.6-6.2-.5-4.4,2.2S400.2,226,398.4,223.3Z" fill="#fffceb"/>
    <path d="M411.8,243.9l.2-.2a2.4,2.4,0,0,0,1-3.1c-.6-1-2.1-1.8-3.2-1.1l-.2.2a2.4,2.4,0,0,0-1,3.1C409.2,243.8,410.7,244.6,411.8,243.9Z" fill="#fffceb"/>
    <path d="M405,251.2a2.1,2.1,0,0,0-2.8-.9,2.1,2.1,0,0,0-.9,2.8l.2.2a2,2,0,0,0,2.7.9,2,2,0,0,0,.9-2.8Z" fill="#fffceb"/>
    <path d="M324.5,227.5c-1.6-2.8-5.6.4-4.1,3.3S326,230.3,324.5,227.5Z" fill="#fffceb"/>
    <path d="M329.8,226.6c.8,1.2,2.2,1.2,3.4.4h.3a2.7,2.7,0,0,0,.6-3.6c-.9-1.3-2.3-1.2-3.5-.5l-.2.2A2.7,2.7,0,0,0,329.8,226.6Z" fill="#fffceb"/>
    <path d="M326.7,212.5c-1.5-2.8-5.5.5-4,3.3S328.3,215.4,326.7,212.5Z" fill="#fffceb"/>
    <path d="M332,209.7v.3a2.4,2.4,0,0,0,3.5.4,2.9,2.9,0,0,0,.6-3.7v-.2a2.4,2.4,0,0,0-3.5-.4A2.8,2.8,0,0,0,332,209.7Z" fill="#fffceb"/>
    <path d="M326.2,196.3a2.1,2.1,0,0,0-3-.3,2.4,2.4,0,0,0-.5,3.1v.2a2.1,2.1,0,0,0,3,.3,2.3,2.3,0,0,0,.5-3Z" fill="#fffceb"/>
    <path d="M334.9,218.2a1.3,1.3,0,0,0,.7.6,2.4,2.4,0,0,0,3.3.2,2.7,2.7,0,0,0,.6-3.6v-.3a2.4,2.4,0,0,0-3.5-.4,2.8,2.8,0,0,0-1,1.7A2.3,2.3,0,0,0,334.9,218.2Z" fill="#fffceb"/>
    <path d="M313.8,238.9a2.3,2.3,0,0,0,3.5.4,4.4,4.4,0,0,0,1.3-2.4,2.5,2.5,0,0,0-2-2.9h-1.1a2.8,2.8,0,0,0-2.3,3A7.6,7.6,0,0,0,313.8,238.9Z" fill="#fffceb"/>
    <path d="M320.9,222.1a2.4,2.4,0,0,0-3.2-1.4l-.6.4a3,3,0,0,0-1.2,1.9,2.3,2.3,0,0,0,2,2.8A2.8,2.8,0,0,0,320.9,222.1Z" fill="#fffceb"/>
    <path d="M335.5,195.9c-1.3-2.5-4.9.3-3.6,2.8S336.9,198.4,335.5,195.9Z" fill="#fffceb"/>
    <path d="M325,203.3a2.7,2.7,0,0,0-2.9,4.1,2.5,2.5,0,0,0,3.3.9,2.8,2.8,0,0,0,1.4-3.4A2.6,2.6,0,0,0,325,203.3Z" fill="#fffceb"/>
    <path d="M324.8,188.3c.6,1.2,2.4,1.2,3.4.4a2.7,2.7,0,0,0,.6-3.6v-.3c-.6-1.2-2.5-1.2-3.5-.4a2.9,2.9,0,0,0-.6,3.7Z" fill="#fffceb"/>
    <path d="M336,204c1.4,2.5,4.9-.4,3.6-2.9S334.7,201.5,336,204Z" fill="#fffceb"/>
    <path d="M338.5,225.9c.6,1.1,2.4,1.1,3.3.4a2.6,2.6,0,0,0,.6-3.5v-.2c-.6-1.1-2.4-1.1-3.3-.4a2.6,2.6,0,0,0-.6,3.5Z" fill="#fffceb"/>
    <path d="M319.9,213.5c-1.5-2.8-5.6.4-4.1,3.2S321.4,216.3,319.9,213.5Z" fill="#fffceb"/>
    <path d="M339.6,211.3c1.4,2.7,5.3-.4,3.9-3S338.2,208.7,339.6,211.3Z" fill="#fffceb"/>
    <path d="M334.9,191.7h.2a2.4,2.4,0,0,0,.6-3.2,2.1,2.1,0,0,0-3.1-.4h-.2a2.4,2.4,0,0,0-.6,3.2A2.1,2.1,0,0,0,334.9,191.7Z" fill="#fffceb"/>
    <path d="M319.9,193.8a1.9,1.9,0,0,0,2.7.3,2.2,2.2,0,0,0,.5-2.9V191a1.9,1.9,0,0,0-2.7-.3,2.2,2.2,0,0,0-.5,2.9Z" fill="#fffceb"/>
    <path d="M470.7,242.5c-4.8-13.9-15-27.6-30.9-28.1a.9.9,0,0,0-1,.4,53.1,53.1,0,0,0-16.6-3.9c0-.1.1-.1.1-.2h0c9.1-4.3,19.4-6.4,27.8-12.4s14.4-17.4,18.2-28.4a1.2,1.2,0,0,0-1.4-1.6c-11,2.8-21.8,5.9-30.6,13.6s-16,18.6-16.5,28.8c-10.1-.5-20.7,1-30.3,3,10.9-14.6,29.3-22.8,32.4-42.4.2-1-1-1.4-1.8-1.1-20.1,8.1-30.3,23.4-34.5,44.3h0l-3,.7q-4.4,1-8.7,2.4a2.4,2.4,0,0,0-3-.6,3,3,0,0,0-1.5,2.1l-3.8,1.4a2.3,2.3,0,0,0-2.4-.1,3.2,3.2,0,0,0-1.4,1.6l-7.6,3.3c1.2-1.6,3.3-3.7,4-4.5,2.9-3.9,5.8-7.6,7.9-11.9,3.2-6.6,2.5-14,1.9-21-.1-1-1.4-1.1-2-.6a40,40,0,0,0-16.4,38.4,1.1,1.1,0,0,0,1.3.9c0,.1.1.1.1.2-4.8,2.3-9.5,4.8-14.1,7.3a2.8,2.8,0,0,0-.3-2.5v-.3c-.6-1.2-2.4-1.2-3.5-.4a2.9,2.9,0,0,0-.6,3.7l.2.2a1.9,1.9,0,0,0,1.4.9l-3.5,2c-.1-.2-.1-.4-.2-.6l-.2-.2c-.6-1.2-2.4-1.2-3.4-.4a2.7,2.7,0,0,0-.6,3.6v.2l-3.9,2.2-.2.2c8.8-15.5,10.2-35.7,6-51.9-.3-1.1-1.9-.4-1.6.7,4.4,16.6,2.5,37.9-7.4,53.1a309,309,0,0,0-28.4,20,170.5,170.5,0,0,0,19.9-74.2,1.2,1.2,0,0,0-2-1c-10.4,9.5-19.8,20.2-23.5,34.1s.3,28.5,2.3,42.4a1,1,0,0,0,.6.8c-5.9,4.7-11.6,9.6-17.2,14.6l-.5.4-.4.4-.7.7-1.4,1.2c.1-7.8,2.5-16.2,3.7-23.9,1.7-9.9-3.8-13.9-8.9-21.7-.5-.7-2-1-2.2.2-1.5,7.8-6.9,15.3-5.9,23.5s5,16.5,10,23.6a1,1,0,0,0,1.1.4A174.6,174.6,0,0,0,250,302.7a174.6,174.6,0,0,0-15.6-16.5,1,1,0,0,0,1.1-.4c5-7.1,8.9-14.9,10-23.6s-4.4-15.7-5.9-23.5c-.2-1.2-1.7-.9-2.2-.2-5.1,7.8-10.6,11.8-8.9,21.7,1.2,7.7,3.6,16.1,3.7,23.9l-1.4-1.2-.7-.7-.4-.4-.5-.4c-5.6-5-11.3-9.9-17.2-14.6a1,1,0,0,0,.6-.8c2-13.9,6.1-28.4,2.3-42.4s-13.1-24.6-23.5-34.1a1.2,1.2,0,0,0-2,1,170.5,170.5,0,0,0,19.9,74.2,309,309,0,0,0-28.4-20c-9.9-15.2-11.8-36.5-7.4-53.1.3-1.1-1.3-1.8-1.6-.7-4.2,16.2-2.8,36.4,6,51.9l-.2-.2-3.9-2.2v-.2a2.7,2.7,0,0,0-.6-3.6c-1-.8-2.8-.8-3.4.4l-.2.2-.2.6-3.5-2a1.9,1.9,0,0,0,1.4-.9l.2-.2a2.9,2.9,0,0,0-.6-3.7c-1.1-.8-2.9-.8-3.5.4v.3a2.8,2.8,0,0,0-.3,2.5c-4.6-2.5-9.3-5-14.1-7.3,0-.1.1-.1.1-.2a1.1,1.1,0,0,0,1.3-.9A40,40,0,0,0,134,187.4c-.6-.5-1.9-.4-2,.6-.6,7-1.3,14.4,1.9,21,2.1,4.3,5,8,7.9,11.9.7.8,2.8,2.9,4,4.5l-7.6-3.3a3.2,3.2,0,0,0-1.4-1.6,2.3,2.3,0,0,0-2.4.1l-3.8-1.4a3,3,0,0,0-1.5-2.1,2.4,2.4,0,0,0-3,.6l-8.7-2.4-3-.7h0c-4.2-20.9-14.4-36.2-34.5-44.3-.8-.3-2,.1-1.8,1.1,3.1,19.6,21.5,27.8,32.4,42.4-9.6-2-20.2-3.5-30.3-3-.5-10.2-9.1-22.3-16.5-28.8s-19.6-10.8-30.6-13.6a1.2,1.2,0,0,0-1.4,1.6c3.8,11,8.5,21.4,18.2,28.4s18.7,8.1,27.8,12.4h0c0,.1.1.1.1.2a53.1,53.1,0,0,0-16.6,3.9.9.9,0,0,0-1-.4c-15.9.5-26.1,14.2-30.9,28.1a1.3,1.3,0,0,0,.6,1.4c7.5,3.7,14.8,2.8,19.9-4.2s6.6-15.5,12.1-21.4a1.1,1.1,0,0,0,.2-1.3c6-2.7,12.7-3.6,19.4-3.6-9.7,3.7-17.2,13.4-21.9,22.5a1.1,1.1,0,0,0,.5,1.6c16.6,7.8,28-11.3,35.2-23.3a185.3,185.3,0,0,1,19.8,3v.2a2.5,2.5,0,0,0,1.1,3.3,2.5,2.5,0,0,0,3.3-1.1l.2-.2a1.7,1.7,0,0,0,.3-1l2.8.9,2.4.8a3,3,0,0,0,1.5,2,2.5,2.5,0,0,0,2.9-.6l3.3,1.3a2.9,2.9,0,0,0,1.5,2.7,2.5,2.5,0,0,0,3.2-.9l5.1,2.2c-17.9-1.1-37.1,7.6-50,19.8-.9.8.4,2,1.3,1.2,13.5-12.7,34.2-21.6,52.5-18.9a.6.6,0,0,0,.6-.1c7.8,3.6,15.4,7.6,22.7,11.9-19.4-4.5-41.2,3.6-58.9,10.4a1.2,1.2,0,0,0-.4,2.1,41.6,41.6,0,0,0,47.2,3.8l8.7-5.3c.8-.5,4.9-3,7.5-4.4l1.6-.4h.7l1-.3a1,1,0,0,0,.6-.5h.7c6.7,4.2,13.3,8.7,19.7,13.3-4.5-.8-11.8.4-13.5.6-13.7,1.4-25.6,7.6-38.3,12.5a1.3,1.3,0,0,0,.1,2.4c9.2,1.6,19.1,5.3,28.5,3.4s17.5-10.5,27.5-14a1.1,1.1,0,0,0,.8-1h.1c5.5,4.2,11,8.6,16.3,13.1l-.3.2-.2.2a2.7,2.7,0,0,0,0,3.8c1.2,1.1,2.7.8,3.9-.2l.2-.2c.1-.1.3-.2.4-.4l2.5,2.3h-.2l-.2.2c-1.2.9-.9,2.9,0,3.8a2.9,2.9,0,0,0,3.8-.2l.3-.2.2-.2,5.2,4.9c-17.5-7-39.8-4.2-56.6,4.3a.9.9,0,1,0,.9,1.5c17-8.5,40-11.2,57.2-3.2a.7.7,0,0,0,.9-.2c3.1,3.1,6.1,6.3,8.9,9.6-20.5-.7-40.8-.4-57.7,13a1.3,1.3,0,0,0,.2,2.1c16.6,10,39.7,3.1,55.5-7.4a78,78,0,0,0-10.1,20.2c-.4,1.5,1.9,2.2,2.3.7,2.8-8.8,7.6-16.9,13.3-24.3,5.7,7.4,10.5,15.5,13.3,24.3.4,1.5,2.7.8,2.3-.7A78,78,0,0,0,255.5,310c15.8,10.5,38.9,17.4,55.5,7.4a1.3,1.3,0,0,0,.2-2.1c-16.9-13.4-37.2-13.7-57.7-13,2.8-3.3,5.8-6.5,8.9-9.6a.7.7,0,0,0,.9.2c17.2-8,40.2-5.3,57.2,3.2,1,.6,2-.9.9-1.5-16.8-8.5-39-11.3-56.6-4.3l5.2-4.9.2.2.3.2a2.9,2.9,0,0,0,3.8.2c.9-.9,1.2-2.9,0-3.8l-.2-.2h-.2l2.5-2.3.4.4.2.2c1.2,1,2.7,1.3,3.9.2a2.7,2.7,0,0,0,0-3.8l-.2-.2-.3-.2c5.3-4.5,10.8-8.9,16.3-13.1h.1a1.1,1.1,0,0,0,.8,1c10,3.5,16.8,11.8,27.5,14s19.3-1.8,28.5-3.4a1.3,1.3,0,0,0,.1-2.4c-12.7-4.9-24.6-11.1-38.3-12.5-1.7-.2-9-1.4-13.5-.6,6.4-4.6,13-9.1,19.7-13.3h.7a1,1,0,0,0,.6.5l1,.3h.7l1.6.4c2.6,1.4,6.7,3.9,7.5,4.4,2.9,1.8,5.8,3.6,8.8,5.3a40.6,40.6,0,0,0,16.6,5.4,41.9,41.9,0,0,0,30.5-9.2,1.2,1.2,0,0,0-.4-2.1c-17.7-6.8-39.5-14.9-58.9-10.4,7.3-4.3,14.9-8.3,22.7-11.9a.6.6,0,0,0,.6.1c18.3-2.7,39,6.2,52.5,18.9.9.8,2.2-.4,1.3-1.2-12.9-12.2-32.1-20.9-50-19.8l5.1-2.2a2.5,2.5,0,0,0,3.2.9,2.9,2.9,0,0,0,1.5-2.7l3.3-1.3a2.5,2.5,0,0,0,2.9.6,3,3,0,0,0,1.5-2l2.4-.8,2.8-.9a1.7,1.7,0,0,0,.3,1l.2.2a2.5,2.5,0,0,0,3.3,1.1,2.5,2.5,0,0,0,1.1-3.3v-.2a185.3,185.3,0,0,1,19.8-3c7.2,12,18.6,31.1,35.2,23.3a1.1,1.1,0,0,0,.5-1.6c-4.7-9.1-12.2-18.8-21.9-22.5,6.7,0,13.4.9,19.4,3.6a1.1,1.1,0,0,0,.2,1.3c5.5,5.9,7.4,14.7,12.1,21.4s12.4,7.9,19.9,4.2A1.3,1.3,0,0,0,470.7,242.5Zm-8.3-65.8c.6-.7,1.2-1.9,1.9-2.9-3.8,9.8-8.8,18.5-18.2,24.2-5.9,3.7-12.6,5.7-19.1,8.2l.3-.8A107.5,107.5,0,0,1,448,188.1c3.2-2.1,6.3-4.2,9.3-6.5A59,59,0,0,0,462.4,176.7Zm-5.4,2c-4,3.7-8.9,6.4-13.4,9.4a91.2,91.2,0,0,0-11.5,9,57.9,57.9,0,0,1,11.8-12.4c4.8-3.9,10.6-6.3,16-9.4A32.4,32.4,0,0,1,457,178.7Zm-19,4.9c5.9-5.7,13.7-8.6,21.5-10.8-6.1,3.9-13,6.6-18.7,11.3a57.4,57.4,0,0,0-15.5,20l-2.4,2.8C425,198.2,432.1,189.3,438,183.6Zm-45.6,23.2a74.4,74.4,0,0,1,26-31.4C414.3,188.9,402,196.8,392.4,206.8Zm5.6-17.6c3.9-5.7,9.4-9.9,15.4-13.2a77.7,77.7,0,0,0-23,29.3A55.2,55.2,0,0,1,398,189.2Zm-37.1,24a71.1,71.1,0,0,1-7.1,9.5c5-9.8,6.1-21.2,12-30.5C366.2,199.7,365.4,206.3,360.9,213.2Zm1.1-19.1c-4.5,8.8-5.8,18.8-10.3,27.5A37.3,37.3,0,0,1,362,194.1Zm-69.2,60.7a146.6,146.6,0,0,1,5.8-29.2c2.6-8.3,5.8-16.5,8.9-24.7A168,168,0,0,1,292.8,254.8Zm13.1-56.7c-3.4,9.6-7.2,19.1-10.3,28.9a120.5,120.5,0,0,0-4.5,21.3,130.3,130.3,0,0,1,2-21.5A71.7,71.7,0,0,1,305.9,198.1Zm-19.3,30.1c1.5-11.3,8-20.9,15.7-29.1a77,77,0,0,0-10.6,23.1c-3.1,11.5-2.9,23.2-3.2,35C286.8,247.6,285.3,238,286.6,228.2Zm-29.7,31.9c-.2-4.7,1.8-9.1,3.6-13.6l.3,3.4c.7,5-.4,9.8-.4,14.8a38.5,38.5,0,0,0,1.1,8.3c.3,1.4,2,4.7,2.9,7.1v1.2C260.3,274.9,257.1,267.7,256.9,260.1Zm7.5,2.7c0,3.7-.2,7.3-.2,10.9a37.6,37.6,0,0,1-1.4-8.9c-.1-3.7.7-7.4.7-11.2a28,28,0,0,0-.3-5c.3.8.5,1.7.8,2.5C264.8,254.9,264.5,259,264.4,262.8Zm-.3-18.4c.7.9,1.3,1.8,2.1,2.7,3.7,4.7,3.6,9.2,2.6,14.8-.6,3.9-1.5,7.9-2.3,11.9,0-5,.3-10,.4-14.9S265.5,249.2,264.1,244.4ZM238.5,273a38.5,38.5,0,0,0,1.1-8.3c0-5-1.1-9.8-.4-14.8l.3-3.4c1.8,4.5,3.8,8.9,3.6,13.6-.2,7.6-3.4,14.8-7.5,21.2v-1.2C236.5,277.7,238.2,274.4,238.5,273Zm-1.7-24.4a28,28,0,0,0-.3,5c0,3.8.8,7.5.7,11.2a37.6,37.6,0,0,1-1.4,8.9c0-3.6-.2-7.2-.2-10.9s-.4-7.9.5-11.7A23.3,23.3,0,0,1,236.8,248.6Zm-3-1.5c.8-.9,1.4-1.8,2.1-2.7-1.4,4.8-2.9,9-2.8,14.5s.4,9.9.4,14.9c-.8-4-1.7-8-2.3-11.9C230.2,256.3,230.1,251.8,233.8,247.1Zm-20.4-18.9c1.3,9.8-.2,19.4-1.8,29-.4-11.8-.2-23.5-3.3-35a77,77,0,0,0-10.6-23.1C205.4,207.3,211.9,216.9,213.4,228.2Zm-20.9-27.3c3.1,8.2,6.3,16.4,8.9,24.7a146.6,146.6,0,0,1,5.8,29.2A168,168,0,0,1,192.5,200.9ZM204.4,227c-3.1-9.8-6.9-19.3-10.3-28.9a71.7,71.7,0,0,1,12.8,28.7,130.3,130.3,0,0,1,2,21.5A120.5,120.5,0,0,0,204.4,227Zm-56.1-5.4c-4.5-8.7-5.8-18.7-10.3-27.5A37.3,37.3,0,0,1,148.3,221.6Zm-9.2-8.4c-4.5-6.9-5.3-13.5-4.9-21,5.9,9.3,7,20.7,12,30.5A71.1,71.1,0,0,1,139.1,213.2ZM81.6,175.4a73.7,73.7,0,0,1,26,31.4C98,196.8,85.7,188.9,81.6,175.4Zm5,.6c6,3.3,11.5,7.5,15.4,13.2a55.2,55.2,0,0,1,7.6,16.1A77.7,77.7,0,0,0,86.6,176ZM53.9,198c-9.4-5.7-14.4-14.4-18.2-24.2.7,1,1.3,2.2,1.9,2.9a59,59,0,0,0,5.1,4.9c3,2.3,6.1,4.4,9.3,6.5a107.5,107.5,0,0,1,20.7,17.3l.3.8C66.5,203.7,59.8,201.7,53.9,198ZM40.1,175.3c5.4,3.1,11.2,5.5,16,9.4a57.9,57.9,0,0,1,11.8,12.4,91.2,91.2,0,0,0-11.5-9c-4.5-3-9.4-5.7-13.4-9.4A32.4,32.4,0,0,1,40.1,175.3Zm34.6,28.8a57.4,57.4,0,0,0-15.5-20c-5.7-4.7-12.6-7.4-18.7-11.3,7.8,2.2,15.6,5.1,21.5,10.8s13,14.6,15.1,23.3ZM32.2,241.8c0-2.2,4.2-9.2,4.7-10A39.7,39.7,0,0,1,47.3,221a19.4,19.4,0,0,0-5,4.9C39.4,230.1,37.2,239.6,32.2,241.8Zm11.4.6a11.6,11.6,0,0,1-8.7,1c5.1-1.5,9.7-3.9,12.9-8.2,1.8-2.4,3.3-5.1,4.9-7.7a17.6,17.6,0,0,1,2.9-3.7C52.3,230.7,50.1,238.6,43.6,242.4Zm5.2-12.9c-3,4.9-6.4,8.2-11.1,10.3a53.8,53.8,0,0,0,3.4-6.8,26,26,0,0,1,16-14A50.6,50.6,0,0,0,48.8,229.5ZM88,215.2c-6.7,6.4-13.2,14.6-21.6,18.3,3-3.1,6-6.1,9.2-9.1S84,215.4,88,215.2Zm-6.6.8c-1.8,1.4-3.4,3-4.6,4-4.2,3.8-8.2,7.8-12.1,11.9C68.8,225.3,74.5,219,81.4,216ZM65.1,236.6c11-3.6,18.7-15,27.3-22.2C86.5,224.3,77.5,239.1,65.1,236.6Zm115.3,26.1,13.2-.9c-5.1,1.3-10,3.5-15.1,5.6s-9.4,4-14.5,4.1a78.9,78.9,0,0,1-8.4-.5C163.6,267.4,171.8,263.8,180.4,262.7Zm-4.3,12.7c-8.6,1.8-16.9-.6-25.3-2.3l.8-.3.8.4c4.6.1,9.1,1.3,13.7.5a50.9,50.9,0,0,0,11.4-3.2c6.8-2.8,13.3-6.1,20.6-7.1C190.6,267.3,184.5,273.6,176.1,275.4Zm-30.5-16.1a41.5,41.5,0,0,1-26.2-3.3,54,54,0,0,0,21.6.3c8.1-1.4,15.9-4.1,23.8-6.3C158.7,253.8,152.7,257.8,145.6,259.3Zm-26.2-5.8c12.7-3.8,26.1-3.3,39.3-4.2-5.3,1.5-10.6,3.1-16,4.2A53.8,53.8,0,0,1,119.4,253.5Zm-4.3-1.1a1,1,0,0,0-1.1.4l-.3-.2c18.5-7.1,41.4-15.2,60.8-8C154.9,249.4,134.1,245.3,115.1,252.4Zm126.2,52.2c-5.9,1.7-11.3,4.9-17,7s-11.3,3.4-17.2,3c-3.7-.3-7.3-1-11-1.3C209.8,305.1,225.4,304.2,241.3,304.6Zm-49.5,11.5.9-.7c10.7.2,19.9,2.9,30.4-.8,7.5-2.8,14.9-7.6,23-8.6C231.4,316.7,208.6,324.8,191.8,316.1Zm112.1-2.8c-3.7.3-7.3,1-11,1.3-5.9.4-11.7-1.1-17.2-3s-11.1-5.3-17-7C274.6,304.2,290.2,305.1,303.9,313.3Zm-27,1.3c10.5,3.7,19.7,1,30.4.8l.9.7c-16.8,8.7-39.6.6-54.3-10.1C262,307,269.4,311.8,276.9,314.6Zm42.7-51.9c8.6,1.1,16.8,4.7,24.8,8.3a78.9,78.9,0,0,1-8.4.5c-5.1-.1-10-2.2-14.5-4.1s-10-4.3-15.1-5.6Zm2.9,7.8a50.9,50.9,0,0,0,11.4,3.2c4.6.8,9.1-.4,13.7-.5a2,2,0,0,0,.8-.4l.8.3c-8.4,1.7-16.7,4.1-25.3,2.3s-14.5-8.1-22-12C309.2,264.4,315.7,267.7,322.5,270.5Zm31.9-11.2c-7.1-1.5-13.1-5.5-19.2-9.3,7.9,2.2,15.7,4.9,23.8,6.3a54,54,0,0,0,21.6-.3A41.5,41.5,0,0,1,354.4,259.3Zm-13.1-10c13.2.9,26.6.4,39.3,4.2a53.8,53.8,0,0,1-23.3,0C351.9,252.4,346.6,250.8,341.3,249.3Zm45,3.3-.3.2a1,1,0,0,0-1.1-.4c-19-7.1-39.8-3-59.4-7.8C344.9,237.4,367.8,245.5,386.3,252.6Zm21.3-38.2c8.6,7.2,16.3,18.6,27.3,22.2C422.5,239.1,413.5,224.3,407.6,214.4Zm4.4.8c4,.2,10.2,7.2,12.4,9.2s6.2,6,9.2,9.1C425.2,229.8,418.7,221.6,412,215.2Zm23.3,16.7c-3.9-4.1-7.9-8.1-12.1-11.9-1.2-1-2.8-2.6-4.6-4C425.5,219,431.2,225.3,435.3,231.9Zm21.1,10.5c-6.5-3.8-8.7-11.7-12-18.6a17.6,17.6,0,0,1,2.9,3.7c1.6,2.6,3.1,5.3,4.9,7.7,3.2,4.3,7.8,6.7,12.9,8.2A11.6,11.6,0,0,1,456.4,242.4ZM442.9,219a26,26,0,0,1,16,14,53.8,53.8,0,0,0,3.4,6.8c-4.7-2.1-8.1-5.4-11.1-10.3A50.6,50.6,0,0,0,442.9,219Zm14.8,6.9a20.7,20.7,0,0,0-4.9-4.9,40.9,40.9,0,0,1,10.3,10.8c.5.8,4.7,7.8,4.7,10C462.8,239.6,460.6,230.1,457.7,225.9Z" fill="#fffceb"/>
    <path d="M220.7,294c2.7-2.3-1.3-5.9-3.9-3.7S218,296.2,220.7,294Z" fill="#fffceb"/>
    <path d="M211,281a2.7,2.7,0,0,0,.1,3.8v.3c1,1.1,2.9.8,3.9-.2a2.8,2.8,0,0,0-.1-3.8l-.2-.2C213.9,279.7,211.9,280.1,211,281Z" fill="#fffceb"/>
    <path d="M201,291.2c-2.7,2.3,1.2,5.9,3.9,3.6S203.7,289,201,291.2Z" fill="#fffceb"/>
    <path d="M193.6,286.4c1.1,1.1,2.6.8,3.8-.1l.2-.2a2.6,2.6,0,0,0-.1-3.8c-1.1-1.1-2.6-.8-3.8.1l-.2.2A2.7,2.7,0,0,0,193.6,286.4Z" fill="#fffceb"/>
    <path d="M187.9,295.2a2.3,2.3,0,0,0-3.2.1l-.2.2a2.2,2.2,0,0,0,0,3.2,2.3,2.3,0,0,0,3.2-.2h.2A2.2,2.2,0,0,0,187.9,295.2Z" fill="#fffceb"/>
    <path d="M205.6,281.3a1.2,1.2,0,0,0,.6-.9,2.7,2.7,0,0,0-.3-3.6c-1.1-1.1-2.6-.8-3.8.2l-.2.2a2.7,2.7,0,0,0,.1,3.8,2,2,0,0,0,1.8.6A1.7,1.7,0,0,0,205.6,281.3Z" fill="#fffceb"/>
    <path d="M228,300.2a6.6,6.6,0,0,0,2-1.1,2.6,2.6,0,0,0-.1-3.7,3.8,3.8,0,0,0-2.7-.9c-1.4-.1-2.6,1.5-2.6,2.8a2.4,2.4,0,0,0,0,1.2A2.7,2.7,0,0,0,228,300.2Z" fill="#fffceb"/>
    <path d="M211.7,295.4a2.6,2.6,0,0,0-.9,3.7,1.2,1.2,0,0,0,.5.5,2.2,2.2,0,0,0,2,.9,2.8,2.8,0,0,0,2.7-2.8C215.8,295.6,213.7,294,211.7,295.4Z" fill="#fffceb"/>
    <path d="M182.7,285.6c-2.4,2,1,5.1,3.4,3.2S185,283.6,182.7,285.6Z" fill="#fffceb"/>
    <path d="M196.4,297.3a2.6,2.6,0,0,0,.4-3.6,2.6,2.6,0,0,0-3.7-.8,3,3,0,0,0-1.3,2.2,2.8,2.8,0,0,0,.8,2.4A2.7,2.7,0,0,0,196.4,297.3Z" fill="#fffceb"/>
    <path d="M172.5,295.1l-.2.2a2.6,2.6,0,0,0,.1,3.8c1.1,1.1,2.6.8,3.8-.2l.2-.2a2.6,2.6,0,0,0-.1-3.7C175.2,293.9,173.7,294.2,172.5,295.1Z" fill="#fffceb"/>
    <path d="M190.9,283.2c2.4-1.9-1.1-5.1-3.4-3.2S188.5,285.2,190.9,283.2Z" fill="#fffceb"/>
    <path d="M209.4,272.3h-.2a2.5,2.5,0,0,0,0,3.6,2.7,2.7,0,0,0,3.7-.1l.2-.2a2.5,2.5,0,1,0-3.7-3.4Z" fill="#fffceb"/>
    <path d="M206.9,302c2.7-2.3-1.2-5.9-3.9-3.7S204.2,304.2,206.9,302Z" fill="#fffceb"/>
    <path d="M198,277.8c2.5-2.1-1.2-5.5-3.7-3.4S195.4,279.9,198,277.8Z" fill="#fffceb"/>
    <path d="M175.1,290.7a2.4,2.4,0,0,0,3.4-.2,2.5,2.5,0,0,0,0-3.4l-.2-.2c-.8-1-2.6-.7-3.4.2a2.4,2.4,0,0,0,.1,3.4Z" fill="#fffceb"/>
    <path d="M179.7,299.9h-.2a2.1,2.1,0,1,0,3,2.9l.2-.2a2.1,2.1,0,1,0-3-2.8Z" fill="#fffceb"/>
    <path d="M131.7,234.4c1.9-2.9-2.7-5.2-4.6-2.4S129.8,237.2,131.7,234.4Z" fill="#fffceb"/>
    <path d="M120.5,228.6c1.1.8,2.9,0,3.5-1.2a2.6,2.6,0,0,0-1.1-3.5l-.3-.2c-1.1-.8-2.9.1-3.5,1.2a2.8,2.8,0,0,0,1.1,3.6Z" fill="#fffceb"/>
    <path d="M112.6,237.2c-1.9,2.9,2.8,5.2,4.7,2.3S114.5,234.4,112.6,237.2Z" fill="#fffceb"/>
    <path d="M103.4,231l-.2.3a2.6,2.6,0,0,0,1.1,3.5,2.7,2.7,0,0,0,3.5-1.2l.2-.3a2.6,2.6,0,0,0-1.1-3.5A2.7,2.7,0,0,0,103.4,231Z" fill="#fffceb"/>
    <path d="M101.4,244.6a2.3,2.3,0,0,0-3,1v.2a2.3,2.3,0,0,0,.9,3,2.3,2.3,0,0,0,3-1.1l.2-.2A2.2,2.2,0,0,0,101.4,244.6Z" fill="#fffceb"/>
    <path d="M140.3,238.2a8.1,8.1,0,0,0,1.6-1.6,2.5,2.5,0,0,0-1.1-3.5,4.5,4.5,0,0,0-2.8,0c-1.4.3-2,2.1-1.7,3.3a3.6,3.6,0,0,0,.4,1.1A2.6,2.6,0,0,0,140.3,238.2Z" fill="#fffceb"/>
    <path d="M123.7,238.2a2.7,2.7,0,0,0,.2,3.7l.6.4a2.4,2.4,0,0,0,2.2.2,2.7,2.7,0,0,0,1.7-3.3A2.7,2.7,0,0,0,123.7,238.2Z" fill="#fffceb"/>
    <path d="M113.2,222.4a2.7,2.7,0,0,0-3.5,1.2l-.2.2a2.7,2.7,0,0,0,1.1,3.6,2.5,2.5,0,0,0,1.9.1,2,2,0,0,0,1.7-.8,3.6,3.6,0,0,0-1-4.3Z" fill="#fffceb"/>
    <path d="M93.9,237c-1.7,2.6,2.4,4.6,4.1,2.1S95.5,234.5,93.9,237Z" fill="#fffceb"/>
    <path d="M109.4,240.7a2.7,2.7,0,0,0-3.7.3,2.8,2.8,0,0,0-.6,2.5,2.6,2.6,0,0,0,1.4,2,2.9,2.9,0,0,0,2.9-4.8Z" fill="#fffceb"/>
    <path d="M90.5,247.6a2.7,2.7,0,0,0-3.5,1.2v.2a2.5,2.5,0,0,0,1.1,3.5,2.7,2.7,0,0,0,3.5-1.2l.2-.2A2.6,2.6,0,0,0,90.5,247.6Z" fill="#fffceb"/>
    <path d="M96.8,230.5c-1.7,2.6,2.5,4.6,4.1,2.1S98.5,228,96.8,230.5Z" fill="#fffceb"/>
    <path d="M116.5,243.3c-1.9,2.9,2.7,5.2,4.6,2.3S118.3,240.5,116.5,243.3Z" fill="#fffceb"/>
    <path d="M101.6,223.3c-1.8,2.7,2.6,4.9,4.4,2.2S103.4,220.7,101.6,223.3Z" fill="#fffceb"/>
    <path d="M88,243.7l.2.2c1.1.7,2.6-.1,3.2-1.1a2.4,2.4,0,0,0-1-3.1l-.2-.2c-1.1-.7-2.6.1-3.2,1.1A2.4,2.4,0,0,0,88,243.7Z" fill="#fffceb"/>
    <path d="M97.8,250.3a2.1,2.1,0,0,0-2.8.9v.2a2,2,0,0,0,.9,2.8,2,2,0,0,0,2.7-.9l.2-.2A2.1,2.1,0,0,0,97.8,250.3Z" fill="#fffceb"/>
    <path d="M179.6,230.8c1.5-2.9-2.5-6.1-4.1-3.3S178.1,233.6,179.6,230.8Z" fill="#fffceb"/>
    <path d="M166.5,226.9h.3c1.2.8,2.6.8,3.4-.4a2.6,2.6,0,0,0-.6-3.6l-.2-.2c-1.2-.7-2.6-.8-3.5.5A2.7,2.7,0,0,0,166.5,226.9Z" fill="#fffceb"/>
    <path d="M177.3,215.8c1.5-2.8-2.5-6.1-4-3.3S175.8,218.6,177.3,215.8Z" fill="#fffceb"/>
    <path d="M167.9,210v-.3a2.8,2.8,0,0,0-.6-3.6,2.4,2.4,0,0,0-3.5.4v.2a2.9,2.9,0,0,0,.6,3.7A2.4,2.4,0,0,0,167.9,210Z" fill="#fffceb"/>
    <path d="M177.2,199.3v-.2a2.4,2.4,0,0,0-.5-3.1,2.1,2.1,0,0,0-3,.3v.3a2.3,2.3,0,0,0,.5,3A2.1,2.1,0,0,0,177.2,199.3Z" fill="#fffceb"/>
    <path d="M183.4,234a2.5,2.5,0,0,0-2,2.9,4.4,4.4,0,0,0,1.3,2.4c1,.9,2.9.8,3.5-.4a7.6,7.6,0,0,0,.6-2,2.8,2.8,0,0,0-2.3-3Z" fill="#fffceb"/>
    <path d="M184.1,223a3,3,0,0,0-1.2-1.9l-.6-.4a2.4,2.4,0,0,0-3.2,1.4,2.8,2.8,0,0,0,3,3.7A2.3,2.3,0,0,0,184.1,223Z" fill="#fffceb"/>
    <path d="M164.4,218.8a1.3,1.3,0,0,0,.7-.6,2.3,2.3,0,0,0,0-1.8,2.8,2.8,0,0,0-1-1.7,2.4,2.4,0,0,0-3.5.4v.3a2.7,2.7,0,0,0,.6,3.6A2.4,2.4,0,0,0,164.4,218.8Z" fill="#fffceb"/>
    <path d="M168.1,198.7c1.3-2.5-2.3-5.3-3.6-2.8S166.7,201.2,168.1,198.7Z" fill="#fffceb"/>
    <path d="M174.6,208.3a2.5,2.5,0,0,0,3.3-.9,2.7,2.7,0,0,0-2.9-4.1,2.6,2.6,0,0,0-1.8,1.6A2.8,2.8,0,0,0,174.6,208.3Z" fill="#fffceb"/>
    <path d="M171.8,188.7c1,.8,2.8.8,3.4-.4l.2-.2a2.9,2.9,0,0,0-.6-3.7c-1-.8-2.9-.8-3.5.4v.3A2.7,2.7,0,0,0,171.8,188.7Z" fill="#fffceb"/>
    <path d="M164,204c1.3-2.5-2.3-5.4-3.6-2.9S162.6,206.5,164,204Z" fill="#fffceb"/>
    <path d="M157.7,222.6v.2a2.6,2.6,0,0,0,.6,3.5c.9.7,2.7.7,3.3-.4v-.2a2.6,2.6,0,0,0-.6-3.5C160.1,221.5,158.3,221.5,157.7,222.6Z" fill="#fffceb"/>
    <path d="M180.1,213.5c-1.5,2.8,2.6,6.1,4.1,3.2S181.6,210.7,180.1,213.5Z" fill="#fffceb"/>
    <path d="M160.4,211.3c1.4-2.6-2.4-5.7-3.9-3S159,214,160.4,211.3Z" fill="#fffceb"/>
    <path d="M165.1,191.7a2.1,2.1,0,0,0,3.1-.4,2.4,2.4,0,0,0-.6-3.2h-.2a2.1,2.1,0,0,0-3.1.4,2.4,2.4,0,0,0,.6,3.2Z" fill="#fffceb"/>
    <path d="M180.1,193.8v-.2a2.2,2.2,0,0,0-.5-2.9,1.9,1.9,0,0,0-2.7.3v.2a2.2,2.2,0,0,0,.5,2.9A1.9,1.9,0,0,0,180.1,193.8Z" fill="#fffceb"/>
  </g>
</svg>
