<svg xmlns="http://www.w3.org/2000/svg" viewBox="0 0 247.09 83.66"><g id="Layer_2" data-name="Layer 2"><g id="Layer_1-2" data-name="Layer 1"><g id="_13" data-name="13"><path d="M146.07,35.91c2.57,2,1,4.24-3.2,4.19-1.84,0-3.29-.43-3.34-1.64a.58.58,0,0,0-.46-.55.9.9,0,0,0-.93.32c-.57,1,.45,2,1.61,2.48a9.13,9.13,0,0,0,3.7.66c2.46,0,5.43-.67,6.7-2.07,5.26-5.81-10.92-6.43-15.94-5.34L134,34a27.22,27.22,0,0,1,3.86-.32A13.45,13.45,0,0,1,146.07,35.91Z" style="fill:#757575"/><path d="M220.3,46.84A13.44,13.44,0,0,0,225.37,49a18.34,18.34,0,0,0,9.27-.39c3.32-1.08,6-3.39,6.52-6.1s-1-5.25-3.74-6.64-6.63-1.13-8.37.07a2.55,2.55,0,0,0-1.26,1.89,1.85,1.85,0,0,0,.52,1.38c.65.66,1.35.71,1.49.58s-.07-.42-.14-.91a1.7,1.7,0,0,1,1.09-1.77,5.58,5.58,0,0,1,4.69.31,4.47,4.47,0,0,1,2.39,4.8c-.41,2-2.25,3.86-4.6,4.82a16,16,0,0,1-7.45.92,16.32,16.32,0,0,1-5.12-1.32,11.63,11.63,0,0,1-1.19-.65l-.4-.25.28.3A7.74,7.74,0,0,0,220.3,46.84Z" style="fill:#757575"/><path d="M137.11,46.67a26.54,26.54,0,0,0,7.67,1.5,24.78,24.78,0,0,0,5.71-.33c3-.56,4.08-1.35,3.85-1.63s-1.66-.08-4.32.06a31.93,31.93,0,0,1-4.9-.09,26,26,0,0,1-6.35-1.37,15.5,15.5,0,0,1-5.24-3c-1.19-1.13-1.6-2.34-1.21-3.34a3.86,3.86,0,0,1,2.1-2.1,7.32,7.32,0,0,1,1-.35l.4-.08h-.43a6.72,6.72,0,0,0-1.22.13,5.91,5.91,0,0,0-3.45,2,3.6,3.6,0,0,0,.32,4.59A13.52,13.52,0,0,0,137.11,46.67Z" style="fill:#757575"/><path d="M103.49,41.46a9.5,9.5,0,0,0,3.74-.67c1.16-.54,2.19-1.53,1.62-2.5a.92.92,0,0,0-.94-.33.6.6,0,0,0-.46.56c-.06,1.22-1.52,1.62-3.37,1.65-4.23,0-5.82-2.22-3.22-4.22,2-1.57,5.09-2.28,8.23-2.24A27.67,27.67,0,0,1,113,34l-.17,0c-5.06-1.11-21.37-.48-16.07,5.38C98,40.78,101,41.46,103.49,41.46Z" style="fill:#757575"/><path d="M47.09,48.7c-.2-.09-.71,0-1.31.57A3.84,3.84,0,0,0,44.46,52a5.62,5.62,0,0,0,2.34,4.51c1.86,1.58,5.1,2.8,9,3.18,7.89.67,14.36-1.89,17.35-4.25a13.89,13.89,0,0,0,3-3,9.63,9.63,0,0,0,.74-1.2s-.41.38-1.2,1a22.43,22.43,0,0,1-3.7,2.46A24.68,24.68,0,0,1,65.25,57a30.34,30.34,0,0,1-9,.55,14.28,14.28,0,0,1-7-2.3A5.57,5.57,0,0,1,47,51.93C46.61,49.93,47.64,48.92,47.09,48.7Z" style="fill:#757575"/><path d="M13,47.13c-2.36-1-4.22-2.79-4.63-4.86a4.51,4.51,0,0,1,2.41-4.84,5.64,5.64,0,0,1,4.73-.31,1.73,1.73,0,0,1,1.1,1.79c-.07.48-.33.77-.14.91s.84.08,1.5-.59a1.84,1.84,0,0,0,.52-1.38,2.55,2.55,0,0,0-1.27-1.91c-1.75-1.21-5.56-1.54-8.44-.07S4.42,39.81,5,42.56s3.23,5.06,6.57,6.15a18.43,18.43,0,0,0,9.35.39A13.59,13.59,0,0,0,26,47a8.11,8.11,0,0,0,1-.84c.18-.21.28-.31.28-.31l-.4.25a10.25,10.25,0,0,1-1.2.65,16.19,16.19,0,0,1-5.16,1.34A16.2,16.2,0,0,1,13,47.13Z" style="fill:#757575"/><path d="M197.82,55.25a14.32,14.32,0,0,1-7,2.3,30.32,30.32,0,0,1-9-.55,24.68,24.68,0,0,1-6.67-2.32,22,22,0,0,1-3.7-2.46c-.8-.65-1.2-1-1.2-1a9.63,9.63,0,0,0,.74,1.2,14,14,0,0,0,3,3c3,2.36,9.47,4.92,17.36,4.25,3.86-.38,7.09-1.6,9-3.18A5.6,5.6,0,0,0,202.62,52a3.8,3.8,0,0,0-1.31-2.73c-.6-.52-1.11-.66-1.32-.57-.54.22.49,1.23.12,3.23A5.61,5.61,0,0,1,197.82,55.25Z" style="fill:#757575"/><path d="M159,35.58a20.81,20.81,0,0,1,7.9-2.74,26.17,26.17,0,0,1,6.07-.22,21.29,21.29,0,0,1,6.35,1.58,52.17,52.17,0,0,1,6.14,3.24A38.86,38.86,0,0,0,192.86,41a21.08,21.08,0,0,0,9.33,1.11,11.56,11.56,0,0,0,7-3.15,3.26,3.26,0,0,0,0-4.8A8.53,8.53,0,0,0,204,32a9.47,9.47,0,0,0-4.64.66,5.52,5.52,0,0,0-2.19,1.56c-.77,1-.5,1.61-.27,1.62s.56-.45,1.48-1.1a6.55,6.55,0,0,1,2-1,7.11,7.11,0,0,1,3.14-.22,5.31,5.31,0,0,1,3.1,1.54,1.93,1.93,0,0,1-.24,2.83,8.52,8.52,0,0,1-4.89,2.1,16.77,16.77,0,0,1-7.09-.94c-4.94-1.66-8.69-4.66-13.6-6.42a24.58,24.58,0,0,0-7.62-1.48,26.94,26.94,0,0,0-6.76.65,18.54,18.54,0,0,0-7.82,3.54,9.25,9.25,0,0,0-1.39,1.4l-.4.51.52-.47A12.5,12.5,0,0,1,159,35.58Z" style="fill:#757575"/><path d="M159.29,49.37a1.86,1.86,0,0,1,.25,1.16c2.55,5.37,9.4,9.84,17.8,11.53,8.82,1.78,19,.43,26-3.44a14.38,14.38,0,0,0,5.8-5.21,5.42,5.42,0,0,0-.54-6.28c4.49,4.21,12.79,6.62,20.71,6,5.32-.4,10.8-1.94,14.37-4.6,4.49-3.37,4.32-7.49.81-11.18a15.51,15.51,0,0,0-8.4-4.35c-3.55-.65-7.71-.12-10.21,1.61s-2.89,4.67-.46,6.44,7.5,1.79,9.61-.14c-2.16,1.32-6.12.94-7.84-.62s-1.15-3.89,1-5.22A12.18,12.18,0,0,1,236.55,34,11.35,11.35,0,0,1,243,37.77c3.74,4.69,0,11-7.37,13.4s-17,1-22.64-2.8c-1.46-1-2.74-2.18-2.85-3.52s1.33-2.81,3.44-2.93,4,1.67,2.61,2.7c1.87-.89,1.13-3-1-3.64a6.75,6.75,0,0,0-6,1.4,4.2,4.2,0,0,0-1,4.3c-2.41-3-8.25-4.71-13.39-3.91a12.53,12.53,0,0,0-7.71,4l.11.06a11.4,11.4,0,0,1,7.33-2.67c4.82-.09,9.3,2.32,10.53,5.29s-.53,6.27-4,8.44S192.8,61.12,188,61.2c-11.4.18-22.3-5.62-24.08-12.8a53.43,53.43,0,0,0,9.21-2.57c2.81-1.18,5.2-2.91,6-5s-.49-4.53-3.4-5.59c-4-1.44-9.1.09-12.08,2.28-4.34,3.18-6,7.78-4.19,11.84Zm10.57-12.84c4.78-1,7.18.89,6.16,4s-5.82,5.58-9.76,7.06c-.82.31-1.66.58-2.51.82C162.28,43.86,163,38,169.86,36.53Z" style="fill:#757575"/><path d="M3.41,48.55c3.56,2.66,9.05,4.2,14.37,4.6,7.92.6,16.22-1.81,20.71-6a5.43,5.43,0,0,0-.55,6.28,14.41,14.41,0,0,0,5.81,5.21c7,3.87,17.18,5.22,26,3.44,8.65-1.74,15.67-6.44,18-12a1.83,1.83,0,0,1,0-.66H87.7c1.78-4.06.15-8.66-4.18-11.84-3-2.19-8.13-3.72-12.08-2.28-2.91,1.06-4.15,3.5-3.4,5.59s3.14,3.82,5.95,5A52.93,52.93,0,0,0,83.2,48.4c-1.78,7.18-12.68,13-24.09,12.8C54.29,61.12,49.41,60,46,57.88s-5.2-5.47-4-8.44,5.72-5.38,10.54-5.29a11.44,11.44,0,0,1,7.33,2.67l.1-.06a12.48,12.48,0,0,0-7.7-4c-5.14-.8-11,.91-13.39,3.91a4.21,4.21,0,0,0-1-4.3,6.75,6.75,0,0,0-6-1.4c-2.13.6-2.86,2.75-1,3.64-1.37-1,.5-2.82,2.61-2.7s3.56,1.58,3.44,2.93-1.39,2.54-2.85,3.52c-5.68,3.81-15.31,5.21-22.64,2.8S.33,42.46,4.07,37.77A11.32,11.32,0,0,1,10.54,34a12.19,12.19,0,0,1,8.36,1.07c2.14,1.33,2.71,3.66,1,5.22s-5.69,1.94-7.84.62c2.11,1.93,7.19,1.92,9.61.14s2-4.71-.46-6.44S14.54,32.37,11,33A15.48,15.48,0,0,0,2.6,37.37C-.91,41.06-1.08,45.18,3.41,48.55Zm77.42-.95c-3.94-1.48-8.77-4-9.76-7.06s1.37-5,6.15-4c6.9,1.45,7.59,7.33,6.12,11.89C82.48,48.18,81.64,47.91,80.83,47.6Z" style="fill:#757575"/><path d="M96.4,48a24.57,24.57,0,0,0,5.76.34,27.08,27.08,0,0,0,7.73-1.51,13.65,13.65,0,0,0,6.09-4,3.64,3.64,0,0,0,.33-4.64,6,6,0,0,0-3.48-2,7,7,0,0,0-1.24-.14h-.42l.4.09a5.27,5.27,0,0,1,1,.34,3.93,3.93,0,0,1,2.12,2.12c.38,1,0,2.23-1.23,3.37a15.38,15.38,0,0,1-5.28,3,25.8,25.8,0,0,1-6.4,1.38,31.21,31.21,0,0,1-4.94.09c-2.68-.14-4.1-.4-4.35,0S93.41,47.41,96.4,48Z" style="fill:#757575"/><path d="M44.89,42.07A21.11,21.11,0,0,0,54.23,41a39.16,39.16,0,0,0,7.36-3.52,52.17,52.17,0,0,1,6.14-3.24,21.22,21.22,0,0,1,6.35-1.58,26.17,26.17,0,0,1,6.07.22,20.88,20.88,0,0,1,7.9,2.74,11.63,11.63,0,0,1,1.66,1.21c.35.3.53.47.53.47l-.4-.51a9.25,9.25,0,0,0-1.39-1.4,18.6,18.6,0,0,0-7.82-3.54,27.07,27.07,0,0,0-6.77-.65,24.64,24.64,0,0,0-7.62,1.48c-4.9,1.76-8.65,4.76-13.59,6.42a16.79,16.79,0,0,1-7.09.94,8.58,8.58,0,0,1-4.9-2.1,2,2,0,0,1-.24-2.83,5.33,5.33,0,0,1,3.11-1.54,7.13,7.13,0,0,1,3.14.22,6.67,6.67,0,0,1,2,1c.92.65,1.18,1.14,1.48,1.1s.49-.6-.27-1.62a5.52,5.52,0,0,0-2.19-1.56A9.47,9.47,0,0,0,43.05,32a8.5,8.5,0,0,0-5.11,2.16,3.26,3.26,0,0,0,0,4.8A11.5,11.5,0,0,0,44.89,42.07Z" style="fill:#757575"/></g><path d="M133,60.55a11.15,11.15,0,0,0,6.38,3.06c1.61.1,2.41-.42,2.41-1,0-1.25-2.73-1.32-6.8-4.82-2-1.77-3.83-3.64-5.25-5s-2.4-2.14-2.4-2.14a27.5,27.5,0,0,0,1.12,3.19A18.24,18.24,0,0,0,133,60.55Z" style="fill:#757575"/><path d="M101.29,50.35a8.59,8.59,0,0,1,3.91,2.31,4.84,4.84,0,0,1-.13,6.42c-1.36,1.49-4.71,2.91-6.1.78a2.87,2.87,0,0,1-.44-1.75,2.43,2.43,0,0,0,1.67,1.1c4.29.56,4.11-7.6.28-7.93a3.75,3.75,0,0,0-2.49.88c-4.11,3.07-2.83,10.73.93,13.39,4.82,3.41,12.48-.64,16.46-4a25.17,25.17,0,0,0,5.38-6.62c1.32-2.31,1.75-4.79,2.79-7.21,1,2.42,1.45,4.9,2.78,7.21a25,25,0,0,0,5.38,6.62c4,3.41,11.64,7.46,16.45,4,3.76-2.66,5-10.32.93-13.39a3.73,3.73,0,0,0-2.49-.88c-3.83.33-4,8.49.28,7.93a2.43,2.43,0,0,0,1.68-1.1,2.87,2.87,0,0,1-.44,1.75c-1.39,2.13-4.75.71-6.1-.78a4.84,4.84,0,0,1-.14-6.42,8.7,8.7,0,0,1,3.91-2.31c6.5-2.41,12.55,4.33,8.27,11.32-2.44,4-8.07,6.15-12.3,6.39-5.62.32-10.46-2.66-13.83-7.12a16.19,16.19,0,0,0,.82,1.45c1.62,2.54,4.4,5,4.35,8.39,0,6.21-7.06,8.09-9.55,12.88-2.5-4.79-9.5-6.67-9.57-12.88,0-3.39,2.74-5.85,4.35-8.39a16.32,16.32,0,0,0,.83-1.45c-3.37,4.46-8.2,7.44-13.83,7.12-4.24-.24-9.87-2.41-12.3-6.39C88.74,54.68,94.81,47.94,101.29,50.35Zm14.84,21.24c-.1,4.86,4.89,7,7.42,10.24,2.52-3.21,7.51-5.38,7.41-10.24-.08-3.66-3.51-6.43-5.13-9.27a21.4,21.4,0,0,1-2.28-5.66,21.46,21.46,0,0,1-2.3,5.66C119.64,65.16,116.2,67.93,116.13,71.59Z" style="fill:#757575"/><path d="M119.69,74.11a17.64,17.64,0,0,0,1.78,2.07l2.08,2.18,2.08-2.18a17.56,17.56,0,0,0,1.77-2.07,6.41,6.41,0,0,0,1.09-2.54,6.69,6.69,0,0,0-1-4.38c-.79-1.37-1.83-2.6-2.56-4a20.51,20.51,0,0,1-1.39-3.78,22.1,22.1,0,0,1-1.4,3.78c-.73,1.42-1.78,2.65-2.56,4a6.69,6.69,0,0,0-1,4.38A6.27,6.27,0,0,0,119.69,74.11Z" style="fill:#757575"/><path d="M105.3,62.64c0,.55.79,1.07,2.41,1a11.18,11.18,0,0,0,6.38-3.06,18.49,18.49,0,0,0,4.54-6.66,26.06,26.06,0,0,0,1.11-3.19s-1,.78-2.39,2.14-3.25,3.21-5.25,5C108,61.32,105.3,61.39,105.3,62.64Z" style="fill:#757575"/><path d="M114.09,23.11a11.21,11.21,0,0,0-6.38-3.05c-1.62-.1-2.41.42-2.41,1,0,1.25,2.73,1.32,6.8,4.83,2,1.76,3.83,3.64,5.25,5S119.74,33,119.74,33a24.68,24.68,0,0,0-1.12-3.19A18.22,18.22,0,0,0,114.09,23.11Z" style="fill:#757575"/><path d="M145.8,33.31a8.57,8.57,0,0,1-3.92-2.3,4.84,4.84,0,0,1,.13-6.42c1.37-1.49,4.72-2.92,6.11-.78a2.85,2.85,0,0,1,.43,1.74,2.34,2.34,0,0,0-1.66-1.09c-4.3-.57-4.12,7.59-.29,7.92a3.77,3.77,0,0,0,2.5-.88c4.1-3.06,2.82-10.73-.94-13.39-4.81-3.41-12.47.65-16.45,4.05a25.13,25.13,0,0,0-5.38,6.62c-1.32,2.31-1.75,4.79-2.79,7.22-1-2.43-1.46-4.91-2.78-7.22a25.13,25.13,0,0,0-5.38-6.62c-4-3.4-11.65-7.46-16.46-4.05-3.76,2.66-5,10.33-.93,13.39a3.76,3.76,0,0,0,2.49.88c3.83-.33,4-8.49-.28-7.92a2.36,2.36,0,0,0-1.67,1.09A2.85,2.85,0,0,1,99,23.81c1.4-2.14,4.75-.71,6.11.78a4.85,4.85,0,0,1,.14,6.42,8.57,8.57,0,0,1-3.92,2.3C94.8,35.72,88.74,29,93,22c2.44-4,8.08-6.15,12.31-6.39,5.62-.31,10.46,2.66,13.83,7.12-.25-.48-.53-1-.83-1.44-1.61-2.55-4.39-5-4.35-8.39.06-6.22,7.07-8.1,9.56-12.89,2.49,4.79,9.5,6.67,9.57,12.89,0,3.39-2.74,5.84-4.35,8.39-.31.48-.58,1-.83,1.44,3.36-4.46,8.2-7.43,13.83-7.12,4.23.24,9.87,2.41,12.3,6.39C158.35,29,152.28,35.72,145.8,33.31ZM131,12.08c.1-4.87-4.89-7-7.42-10.25C121,5,116,7.21,116.13,12.08c.07,3.65,3.51,6.43,5.13,9.27A21.54,21.54,0,0,1,123.54,27a21.24,21.24,0,0,1,2.29-5.65C127.44,18.51,130.89,15.73,131,12.08Z" style="fill:#757575"/><path d="M127.4,9.55a17.54,17.54,0,0,0-1.78-2.06l-2.08-2.18-2.08,2.18a17.46,17.46,0,0,0-1.77,2.06,6.26,6.26,0,0,0-1.09,2.55,6.66,6.66,0,0,0,1,4.38c.78,1.37,1.83,2.59,2.55,4a20.71,20.71,0,0,1,1.4,3.77,22.31,22.31,0,0,1,1.4-3.77c.73-1.43,1.77-2.65,2.55-4a6.72,6.72,0,0,0,1-4.38A6.26,6.26,0,0,0,127.4,9.55Z" style="fill:#757575"/><path d="M141.78,21c0-.54-.79-1.06-2.4-1A11.21,11.21,0,0,0,133,23.11a18.26,18.26,0,0,0-4.54,6.67A24.68,24.68,0,0,0,127.34,33s1-.79,2.4-2.14,3.25-3.22,5.25-5C139.06,22.34,141.79,22.27,141.78,21Z" style="fill:#757575"/></g></g></svg>