<?xml version="1.0" standalone="no"?>
<!DOCTYPE svg PUBLIC "-//W3C//DTD SVG 20010904//EN"
 "http://www.w3.org/TR/2001/REC-SVG-20010904/DTD/svg10.dtd">
<svg version="1.0" xmlns="http://www.w3.org/2000/svg"
 width="215.000000pt" height="215.000000pt" viewBox="0 0 215.000000 215.000000"
 preserveAspectRatio="xMidYMid meet">
<metadata>
Created by potrace 1.14, written by Peter Selinger 2001-2017
</metadata>
<g transform="translate(0.000000,215.000000) scale(0.100000,-0.100000)"
fill="#000000" stroke="none">
<path d="M977 2059 c-9 -6 -25 -9 -35 -8 -9 1 -24 -1 -32 -4 -8 -3 -31 -8 -50
-11 -65 -10 -85 -16 -88 -25 -2 -5 -12 -7 -22 -4 -12 3 -20 0 -20 -6 0 -7 -4
-10 -9 -6 -5 3 -12 1 -16 -5 -4 -6 -10 -8 -15 -5 -4 3 -13 -2 -20 -10 -7 -8
-16 -12 -21 -9 -5 3 -9 0 -9 -5 0 -6 -3 -10 -7 -9 -12 3 -106 -48 -130 -71
-12 -12 -26 -21 -31 -21 -5 0 -18 -11 -28 -25 -10 -14 -23 -25 -29 -25 -6 0
-26 -18 -45 -41 -19 -22 -47 -54 -62 -71 -16 -18 -28 -36 -28 -40 0 -5 -6 -6
-12 -2 -7 4 -10 4 -6 -1 4 -4 3 -14 -3 -22 -6 -7 -9 -13 -6 -13 3 0 -5 -12
-18 -26 -14 -15 -22 -30 -19 -35 3 -5 0 -9 -5 -9 -6 0 -10 -3 -9 -7 1 -5 -7
-26 -19 -48 -31 -60 -56 -136 -69 -210 -3 -16 -8 -43 -11 -60 -16 -75 -4 -360
16 -375 3 -3 7 -16 9 -30 1 -14 5 -32 9 -40 3 -8 8 -23 10 -34 4 -25 76 -170
86 -174 4 -2 5 -8 1 -13 -3 -5 0 -9 5 -9 6 0 11 -4 11 -10 0 -10 21 -39 58
-77 12 -13 22 -27 22 -32 0 -4 11 -17 25 -29 14 -12 25 -27 25 -34 0 -6 3 -9
6 -5 3 3 17 -4 31 -16 99 -86 88 -78 143 -107 25 -14 47 -28 48 -33 2 -4 8 -5
13 -1 5 3 9 0 9 -7 0 -7 2 -10 6 -7 3 3 26 -5 51 -18 26 -13 50 -21 55 -18 4
3 8 1 8 -4 0 -6 15 -13 33 -16 17 -3 43 -9 57 -12 14 -3 39 -7 55 -10 55 -9
60 -10 70 -15 6 -3 51 -5 100 -3 132 3 165 6 165 15 0 4 8 8 18 7 9 0 33 3 52
7 19 3 41 7 48 7 6 1 12 6 12 11 0 6 3 8 6 4 10 -10 224 89 224 104 0 6 4 8 8
5 5 -3 20 6 35 20 15 14 27 22 27 19 0 -4 17 12 39 34 21 22 41 38 43 35 3 -2
16 10 29 28 13 18 35 44 49 59 35 38 59 72 59 83 -1 5 3 12 9 15 16 11 63 102
57 112 -4 5 0 9 7 9 8 0 14 10 15 22 1 11 6 24 10 27 8 6 15 25 17 51 1 9 5
20 8 26 7 11 18 57 22 89 1 11 4 25 7 30 4 6 5 25 4 43 -1 17 1 32 5 32 3 0 6
38 6 85 0 47 -3 85 -7 85 -4 0 -6 15 -5 33 2 17 0 37 -3 42 -3 6 -7 21 -8 35
-1 14 -4 36 -8 50 -3 14 -7 30 -9 37 -1 7 -5 16 -9 19 -4 4 -7 14 -7 21 0 8
-16 49 -37 91 -38 80 -40 85 -42 103 0 5 -5 7 -11 4 -5 -3 -10 0 -10 7 0 20
-73 117 -88 118 -7 0 -10 5 -7 10 3 6 1 10 -5 10 -6 0 -9 4 -5 9 3 5 -4 12
-15 16 -11 3 -20 12 -20 20 0 8 -8 16 -17 19 -10 4 -40 26 -68 51 -27 25 -55
45 -61 45 -6 0 -19 9 -29 20 -10 11 -22 17 -27 13 -6 -3 -13 -1 -17 4 -6 10
-96 55 -106 54 -3 -1 -18 5 -33 13 -34 17 -230 57 -297 60 -27 1 -60 -1 -73
-6 -15 -5 -21 -4 -17 2 8 13 -5 12 -28 -1z"/>
</g>
</svg>
